<svg xmlns="http://www.w3.org/2000/svg" viewBox="0 0 128 128" width="128" height="128">
  <rect width="128" height="128" rx="24" fill="#18181c"/>
  <rect x="14" y="20" width="100" height="6" rx="3" fill="#00d2ff" opacity="0.85"/>
  <rect x="14" y="32" width="100" height="6" rx="3" fill="#00f5d4" opacity="0.85"/>
  <rect x="14" y="44" width="72" height="6" rx="3" fill="#ff9f1c" opacity="0.85"/>
  <rect x="14" y="56" width="88" height="6" rx="3" fill="#4ade80" opacity="0.85"/>
  <rect x="14" y="68" width="60" height="6" rx="3" fill="#d946ef" opacity="0.85"/>
  <path d="M14 94 Q28 88, 39 92 Q50 96, 60 88 Q70 80, 82 84 Q94 88, 104 82 L114 78 L114 114 L14 114 Z"
        fill="url(#grad)" opacity="0.2"/>
  <path d="M14 94 Q28 88, 39 92 Q50 96, 60 88 Q70 80, 82 84 Q94 88, 104 82 L114 78"
        fill="none" stroke="#00d2ff" stroke-width="2.5" stroke-linecap="round" stroke-linejoin="round"/>
  <defs>
    <linearGradient id="grad" x1="0" y1="78" x2="0" y2="114" gradientUnits="userSpaceOnUse">
      <stop offset="0" stop-color="#00d2ff" stop-opacity="0.5"/>
      <stop offset="1" stop-color="#00d2ff" stop-opacity="0"/>
    </linearGradient>
  </defs>
</svg>
